Coordinates
version=1
nRows=17
nColumns=36
inDegrees=yes

Units are S.I. units (second, meters, Newtons, ...)
If the header above contains a line with 'inDegrees', this indicates whether rotational values are in degrees (yes) or radians (no).

endheader
time	pelvis_tilt	pelvis_list	pelvis_rotation	pelvis_tx	pelvis_ty	pelvis_tz	hip_flexion_r	hip_adduction_r	hip_rotation_r	knee_angle_r	knee_angle_r_beta	ankle_angle_r	subtalar_angle_r	mtp_angle_r	hip_flexion_l	hip_adduction_l	hip_rotation_l	knee_angle_l	knee_angle_l_beta	ankle_angle_l	subtalar_angle_l	mtp_angle_l	lumbar_extension	lumbar_bending	lumbar_rotation	arm_flex_r	arm_add_r	arm_rot_r	elbow_flex_r	pro_sup_r	arm_flex_l	arm_add_l	arm_rot_l	elbow_flex_l	pro_sup_l
      2.50833330	     -8.62335760	      0.97873582	      0.99776366	     -0.02233561	      1.19635180	     -0.09385616	     24.01013148	     -7.54421288	    -10.81197180	      1.82225968	      0.03180443	    -39.19914703	     -7.02099391	     -7.49999987	     22.42397726	     -3.52749546	     -8.49149949	      1.45277953	      0.02535579	    -33.80170859	     -3.12475841	     -7.49999987	    -15.49237212	      1.08638313	     -1.07659842	     37.52976441	    -14.73638574	      8.54517334	    117.18651467	     95.01147655	     56.39123779	     -7.37568965	     32.75182263	     99.56587668	     73.77110993
      2.51250000	     -8.44423416	      0.96944247	      0.97035067	     -0.01812087	      1.18419638	     -0.09399399	     24.04303986	     -7.51440470	    -10.68642099	      1.59058745	      0.02776099	    -38.54437526	     -6.89713162	     -7.49999987	     22.60736877	     -3.59546731	     -8.32121797	      1.35438116	      0.02363841	    -33.45242317	     -2.90538954	     -7.49999987	    -15.61373183	      1.24180783	     -1.28426420	     37.68452057	    -14.96931926	      8.68193387	    117.38007522	     93.38695021	     56.48468513	     -7.40175684	     33.31836337	    100.13343873	     73.21767484
      2.51666670	     -8.14471916	      0.95587001	      0.86348199	     -0.01147106	      1.17793680	     -0.09439769	     23.94160955	     -7.51792663	    -10.53509346	      1.54124174	      0.02689974	    -38.00140768	     -6.53629875	     -7.49999987	     22.61549343	     -3.70798905	     -8.09609730	      1.36761864	      0.02386945	    -32.96554585	     -2.29114281	     -7.49999987	    -15.84588843	      1.28288792	     -1.40153088	     37.50444534	    -15.10897146	      8.78627620	    117.96427259	     90.60130682	     56.45143340	     -7.50221356	     34.12302274	    100.81740593	     72.14370533
      2.52083330	     -7.90793458	      0.92346808	      0.90247925	     -0.00585209	      1.16997059	     -0.09543382	     23.91817587	     -7.56545391	    -10.28939930	      1.53171531	      0.02673348	    -37.75635820	     -6.22267749	     -7.49999987	     22.72889656	     -3.73664360	     -7.93913294	      1.38638867	      0.02419705	    -32.59058205	     -1.93947527	     -7.49999987	    -16.05862186	      1.40036212	     -1.46926133	     37.31206085	    -15.37763167	      8.83731145	    118.63323951	     87.99394566	     56.29476545	     -7.57417974	     34.56383235	    101.58938681	     71.15500850
      2.52500000	     -7.80693880	      0.96453505	      0.84533954	     -0.00004613	      1.15726592	     -0.09666010	     24.11265164	     -7.70843195	    -10.13033823	      1.65498903	      0.02888501	    -37.58088020	     -6.28621203	     -7.49999987	     22.91900459	     -3.67519040	     -7.68007780	      1.44009544	      0.02513441	    -32.21062202	     -1.87798001	     -7.49999987	    -15.98927025	      1.22548421	     -1.23710374	     36.66308627	    -15.76093942	      7.76207798	    119.61766616	     96.49968851	     56.46473669	     -7.29457349	     35.21133693	    101.58760145	     75.62620748
      2.52916670	     -7.60996173	      1.05046127	      0.82951945	      0.00550607	      1.14755352	     -0.09664708	     24.16975762	     -7.83637282	     -9.96849863	      1.79943091	      0.03140599	    -37.59199822	     -6.17193767	     -7.49999987	     23.09010995	     -3.49766143	     -7.40637003	      1.60949725	      0.02809103	    -32.04834322	     -1.76794033	     -7.49999987	    -16.03185352	      1.09197074	     -1.47564670	     36.55297532	    -15.91275579	      8.31740962	    120.19957265	     93.85349226	     56.36981264	     -7.67141385	     35.53268796	    102.24435593	     74.39424156
      2.53333330	     -7.42617916	      1.24272803	      0.74827166	      0.01169794	      1.13920648	     -0.09747973	     24.24448300	     -8.06826799	     -9.92420481	      1.89490295	      0.03307230	    -37.76828856	     -6.18740420	     -7.49999987	     23.26795649	     -3.31663995	     -7.21098763	      1.75420511	      0.03061665	    -32.20078469	     -1.41490109	     -7.49999987	    -16.02230198	      0.83792228	     -1.59723041	     36.29525223	    -16.10649536	      8.79626321	    120.74366680	     92.16444342	     56.31677354	     -8.02011728	     35.63439355	    102.50438267	     73.68181894
      2.53750000	     -7.34104809	      1.39212473	      0.78734084	      0.01884072	      1.13040604	     -0.09758736	     24.33007197	     -8.23938855	     -9.94867207	      1.83393206	      0.03200815	    -37.66667327	     -5.91838794	     -7.49999987	     23.49937482	     -3.12775571	     -6.96660612	      1.62648710	      0.02838756	    -32.15659363	     -1.24962240	     -7.49999987	    -15.93930292	      0.61622019	     -1.43249215	     35.59025875	    -16.43731555	      8.31757528	    121.50953672	     96.99934633	     56.28213428	     -7.98569181	     35.96933273	    102.41524309	     76.22192378
      2.54166670	     -7.11471875	      1.42659069	      0.68227596	      0.02351856	      1.11906887	     -0.09742469	     24.35878448	     -8.18405406	     -9.95222429	      2.10352460	      0.03671343	    -37.59379676	     -5.88403219	     -7.49999987	     23.66122937	     -3.19391568	     -6.49892399	      1.62034186	      0.02828030	    -32.03185825	     -1.08220754	     -7.49999987	    -16.07834313	      0.50560372	     -1.52339247	     35.33675813	    -16.63958533	      8.55100028	    121.89329427	     97.15286297	     56.23423983	     -8.31008671	     35.96751497	    102.58448157	     76.70379390
      2.54583330	     -6.91610903	      1.44274944	      0.78870383	      0.02769661	      1.11002393	     -0.09599786	     24.42415512	     -8.20577907	    -10.13350644	      2.37760882	      0.04149710	    -37.93373219	     -6.31327783	     -7.49999987	     23.84555211	     -3.13929952	     -6.68010658	      1.68152022	      0.02934806	    -31.93440604	     -1.25348831	     -7.49999987	    -16.24119504	      0.34435936	     -1.46215797	     34.89134259	    -16.96211094	      8.41311290	    122.60136793	     95.58614949	     56.59135573	     -8.45608210	     36.45896235	    102.72763071	     75.89729217
      2.55000000	     -6.64623271	      1.43988958	      0.90936726	      0.03455984	      1.09947446	     -0.09591581	     24.34521913	     -8.23690114	    -10.34014923	      2.75465990	      0.04807788	    -37.90731379	     -6.32380649	     -7.49999987	     23.90378373	     -3.11935360	     -6.47719240	      1.85950662	      0.03245451	    -31.42057908	     -0.92016966	     -7.49999987	    -16.35727637	      0.37042292	     -1.68693223	     34.75062210	    -17.05545665	      8.84560685	    123.17977777	     92.52831413	     56.60346418	     -9.06858788	     36.91735482	    103.68889915	     74.54212440
      2.55416670	     -6.55515611	      1.44531208	      1.12994558	      0.03941872	      1.08728541	     -0.09547835	     24.56024723	     -8.27413498	    -10.68640381	      3.22554080	      0.05629631	    -37.60365501	     -6.22091915	     -7.49999987	     24.32998344	     -3.06095072	     -6.42577128	      2.22175296	      0.03877690	    -31.03899475	     -0.90705390	     -7.49999987	    -16.37262872	      0.17874234	     -1.48712183	     34.00366479	    -17.43521956	      8.11425129	    124.48585804	     96.69933488	     57.12615908	     -8.99578826	     38.01928846	    104.28205997	     76.93116015
      2.55833330	     -6.41309124	      1.45820097	      1.13006091	      0.04513393	      1.07595872	     -0.09566711	     24.77952078	     -8.24684586	    -10.73502517	      3.92088487	      0.06843235	    -37.50974543	     -6.59162877	     -7.49999987	     24.75416398	     -3.04334434	     -6.02493939	      2.87162821	      0.05011937	    -30.48942740	     -0.47320271	     -7.49999987	    -16.33842574	      0.11137591	     -1.61185165	     33.74373134	    -17.60620530	      8.13577925	    125.38454221	     97.12484092	     57.22268271	     -9.49490225	     38.49050210	    105.20885689	     77.60301752
      2.56250000	     -6.30290988	      1.48432072	      1.17834219	      0.05046408	      1.06477153	     -0.09574498	     25.11560203	     -8.28657718	    -10.46395098	      4.81442413	      0.08402755	    -37.15504805	     -6.60161400	     -7.49999987	     25.24179493	     -2.93400236	     -5.79700805	      3.60837489	      0.06297802	    -30.19342540	     -0.08044802	     -7.49999987	    -16.31151541	      0.08960500	     -1.74086914	     33.60780402	    -17.78786915	      8.54503119	    126.06295555	     94.35283255	     57.08321022	    -10.15201947	     38.40528232	    105.69236371	     76.25483675
      2.56666670	     -6.14261926	      1.65546550	      1.31254060	      0.05682368	      1.05910806	     -0.09371245	     25.40875191	     -8.44106764	    -10.75269834	      5.84293975	      0.10197854	    -36.31528184	     -6.50774615	     -7.49999987	     25.52282212	     -2.78532351	     -6.31727107	      4.12639103	      0.07201911	    -30.87385702	     -0.18064060	     -7.49999987	    -16.53059795	     -0.28096543	     -1.91429282	     33.03268910	    -17.83103394	      8.70365917	    126.83739924	     92.56477677	     57.21505345	    -10.69755587	     38.53753688	    106.02301878	     75.28304395
      2.57083330	     -6.02059278	      1.78679938	      1.33054798	      0.06199177	      1.04564869	     -0.09495416	     25.97883894	     -8.67232465	    -10.83894808	      7.32071329	      0.12777055	    -35.57530167	     -6.44745907	     -7.49999987	     25.89238135	     -2.65036566	     -6.50327294	      4.87616732	      0.08510517	    -31.31849905	     -0.52634424	     -7.49999987	    -16.63491531	     -0.56184960	     -1.57412477	     32.19705137	    -18.25572889	      7.76487668	    127.93049516	     97.16030942	     57.25814334	    -10.73121094	     38.17165994	    105.44717366	     77.77881150
      2.57500000	     -5.92754872	      1.84920646	      1.21809038	      0.06717230	      1.02841164	     -0.09611492	     26.69777969	     -8.83626997	    -10.85646205	      9.02044352	      0.15743644	    -34.52377448	     -6.95957904	     -7.49999987	     26.36842073	     -2.62694075	     -6.71247959	      5.69126820	      0.09933137	    -31.11556553	     -1.01645648	     -7.49999987	    -16.63257261	     -0.72455656	     -1.76373666	     32.41453710	    -18.60627342	      8.25120124	    128.55709965	     93.91406134	     57.25163515	    -11.31689920	     37.34193323	    105.83186736	     76.25567945
